<svg xmlns="http://www.w3.org/2000/svg" version="1.1" xmlns:xlink="http://www.w3.org/1999/xlink" xmlns:svgjs="http://svgjs.dev/svgjs" width="2000" height="797" viewBox="0 0 2000 797"><g transform="matrix(1,0,0,1,-1.2121212121213603,-1.1426261415324461)"><svg viewBox="0 0 396 158" data-background-color="#293040" preserveAspectRatio="xMidYMid meet" height="797" width="2000" xmlns="http://www.w3.org/2000/svg" xmlns:xlink="http://www.w3.org/1999/xlink"><g id="tight-bounds" transform="matrix(1,0,0,1,0.24000000000003752,0.22651810584959264)"><svg viewBox="0 0 395.5199999999999 157.54696378830081" height="157.54696378830081" width="395.5199999999999"><g><svg viewBox="0 0 395.5199999999999 157.54696378830081" height="157.54696378830081" width="395.5199999999999"><g><svg viewBox="0 0 395.5199999999999 157.54696378830081" height="157.54696378830081" width="395.5199999999999"><g id="textblocktransform"><svg viewBox="0 0 395.5199999999999 157.54696378830081" height="157.54696378830081" width="395.5199999999999" id="textblock"><g><svg viewBox="0 0 395.5199999999999 157.54696378830081" height="157.54696378830081" width="395.5199999999999"><g transform="matrix(1,0,0,1,0,0)"><svg width="395.5199999999999" viewBox="0.9 -36.16 96.41 38.41" height="157.54696378830081" data-palette-color="#ffffff"><path d="M10.01-8.06L10.01-26.2Q10.01-26.9 9.9-27.22 9.79-27.54 9.79-27.81L9.79-27.81Q9.79-28.17 10.18-28.42 10.57-28.66 11.11-28.66L11.11-28.66Q12.35-28.66 13.12-28.02 13.89-27.37 13.89-26.44L13.89-26.44 13.89-7.91Q13.89-6.1 14.18-4.83 14.48-3.56 15.06-2.76 15.65-1.95 16.5-1.57 17.36-1.2 18.46-1.2L18.46-1.2Q19.51-1.2 20.4-1.59 21.29-1.98 21.95-2.66 22.61-3.34 22.97-4.27 23.34-5.2 23.34-6.3L23.34-6.3Q23.34-7.98 22.75-9.11 22.17-10.23 21.23-10.91 20.29-11.6 19.1-11.88 17.92-12.16 16.75-12.16L16.75-12.16Q16.53-12.16 16.31-12.44 16.09-12.72 15.94-13.13 15.8-13.55 15.72-14.03 15.65-14.5 15.7-14.92 15.75-15.33 15.93-15.61 16.11-15.89 16.5-15.89L16.5-15.89Q17.09-15.89 17.92-16.04 18.75-16.19 19.65-16.56 20.56-16.94 21.44-17.58 22.31-18.21 23.02-19.2 23.73-20.19 24.17-21.55 24.61-22.9 24.61-24.71L24.61-24.71Q24.61-26.12 24.13-27.5 23.66-28.88 22.61-29.97 21.56-31.05 19.92-31.73 18.29-32.4 15.99-32.4L15.99-32.4Q12.99-32.4 10.84-31.47 8.69-30.54 7.34-28.98 5.98-27.42 5.35-25.35 4.71-23.29 4.71-21L4.71-21Q4.71-19.34 4.99-18.2 5.27-17.07 5.62-16.35 5.96-15.63 6.25-15.28 6.54-14.94 6.59-14.89L6.59-14.89Q7.01-15.01 7.18-14.79 7.35-14.58 7.35-14.21L7.35-14.21Q7.35-13.87 7.12-13.18 6.88-12.5 6.49-11.9 6.1-11.3 5.59-11 5.08-10.69 4.54-11.11L4.54-11.11Q4.25-11.38 3.64-12.08 3.03-12.79 2.43-13.98 1.83-15.16 1.37-16.83 0.9-18.51 0.9-20.7L0.9-20.7Q0.9-24.22 2-27.06 3.1-29.91 5.09-31.93 7.08-33.96 9.84-35.06 12.6-36.16 15.94-36.16L15.94-36.16Q18.77-36.16 21.08-35.39 23.39-34.62 25.02-33.15 26.66-31.69 27.55-29.58 28.44-27.47 28.44-24.8L28.44-24.8Q28.44-22.75 27.95-21.09 27.47-19.43 26.6-18.12 25.73-16.8 24.55-15.78 23.36-14.77 22-14.04L22-14.04Q23.1-13.72 24.05-13.1 25-12.48 25.71-11.52 26.42-10.57 26.83-9.29 27.25-8.01 27.25-6.4L27.25-6.4Q27.25-4.52 26.57-2.93 25.9-1.34 24.73-0.2 23.56 0.95 21.96 1.6 20.36 2.25 18.51 2.25L18.51 2.25Q16.04 2.25 14.4 1.5 12.77 0.76 11.79-0.6 10.82-1.95 10.41-3.85 10.01-5.74 10.01-8.06L10.01-8.06ZM49.09-8.25L49.09-8.25Q49.14-8.54 49.42-8.74 49.7-8.94 50.07-9.01 50.44-9.08 50.84-9.01 51.24-8.94 51.55-8.68 51.85-8.42 51.99-7.97 52.12-7.52 51.95-6.81L51.95-6.81Q51.73-5.79 51.23-4.9 50.73-4 49.97-3.32 49.22-2.64 48.19-2.25 47.17-1.86 45.9-1.86L45.9-1.86Q45.21-1.86 44.61-1.93 44.02-2 43.45-2.2L43.45-2.2Q42.53-0.59 41.06 0.4 39.6 1.39 37.45 1.39L37.45 1.39Q35.54 1.39 34.18 0.65 32.81-0.1 31.91-1.38 31-2.66 30.58-4.35 30.15-6.03 30.15-7.91L30.15-7.91Q30.15-10.67 30.8-12.85 31.44-15.04 32.3-16.56 33.15-18.09 33.99-18.9 34.84-19.7 35.25-19.7L35.25-19.7Q35.74-19.7 36.14-19.27 36.55-18.85 36.73-18.27 36.91-17.7 36.83-17.11 36.74-16.53 36.25-16.21L36.25-16.21Q35.96-15.75 35.56-15.14 35.15-14.53 34.8-13.61 34.45-12.7 34.2-11.38 33.96-10.06 33.96-8.2L33.96-8.2Q33.96-6.62 34.24-5.44 34.52-4.27 35.02-3.48 35.52-2.69 36.17-2.29 36.81-1.9 37.55-1.9L37.55-1.9Q38.62-1.9 39.32-2.43 40.01-2.95 40.5-3.81L40.5-3.81Q38.74-5.32 37.83-7.65 36.91-9.99 36.91-12.7L36.91-12.7Q36.91-13.87 37.17-14.93 37.42-15.99 37.92-16.8 38.43-17.6 39.18-18.08 39.94-18.55 40.94-18.55L40.94-18.55Q41.82-18.55 42.6-17.92 43.38-17.29 43.97-16.16 44.55-15.04 44.88-13.5 45.21-11.96 45.21-10.16L45.21-10.16Q45.21-8.76 45.04-7.4 44.87-6.03 44.5-4.76L44.5-4.76Q44.77-4.66 45-4.65 45.24-4.64 45.51-4.64L45.51-4.64Q46.31-4.64 46.93-4.93 47.56-5.22 48-5.71 48.44-6.2 48.7-6.86 48.97-7.52 49.09-8.25ZM39.55-12.89L39.55-12.89Q39.55-11.21 40.07-9.69 40.6-8.18 41.45-7.06L41.45-7.06Q41.6-8.25 41.6-9.35L41.6-9.35Q41.6-10.62 41.56-11.71 41.53-12.79 41.39-13.57 41.26-14.36 41.03-14.81 40.79-15.26 40.4-15.26L40.4-15.26Q39.55-15.26 39.55-12.89ZM67.4-8.25L67.4-8.25Q67.45-8.54 67.73-8.74 68.01-8.94 68.38-9.01 68.75-9.08 69.15-9.01 69.55-8.94 69.86-8.68 70.16-8.42 70.3-7.97 70.43-7.52 70.26-6.81L70.26-6.81Q70.04-5.79 69.54-4.9 69.04-4 68.28-3.32 67.52-2.64 66.5-2.25 65.47-1.86 64.2-1.86L64.2-1.86Q63.52-1.86 62.92-1.93 62.32-2 61.76-2.2L61.76-2.2Q60.83-0.59 59.37 0.4 57.91 1.39 55.76 1.39L55.76 1.39Q53.85 1.39 52.49 0.65 51.12-0.1 50.21-1.38 49.31-2.66 48.88-4.35 48.46-6.03 48.46-7.91L48.46-7.91Q48.46-10.67 49.1-12.85 49.75-15.04 50.61-16.56 51.46-18.09 52.3-18.9 53.14-19.7 53.56-19.7L53.56-19.7Q54.05-19.7 54.45-19.27 54.85-18.85 55.04-18.27 55.22-17.7 55.13-17.11 55.05-16.53 54.56-16.21L54.56-16.21Q54.27-15.75 53.86-15.14 53.46-14.53 53.11-13.61 52.75-12.7 52.51-11.38 52.27-10.06 52.27-8.2L52.27-8.2Q52.27-6.62 52.55-5.44 52.83-4.27 53.33-3.48 53.83-2.69 54.47-2.29 55.12-1.9 55.85-1.9L55.85-1.9Q56.93-1.9 57.62-2.43 58.32-2.95 58.81-3.81L58.81-3.81Q57.05-5.32 56.14-7.65 55.22-9.99 55.22-12.7L55.22-12.7Q55.22-13.87 55.48-14.93 55.73-15.99 56.23-16.8 56.73-17.6 57.49-18.08 58.25-18.55 59.25-18.55L59.25-18.55Q60.13-18.55 60.91-17.92 61.69-17.29 62.28-16.16 62.86-15.04 63.19-13.5 63.52-11.96 63.52-10.16L63.52-10.16Q63.52-8.76 63.35-7.4 63.18-6.03 62.81-4.76L62.81-4.76Q63.08-4.66 63.31-4.65 63.54-4.64 63.81-4.64L63.81-4.64Q64.62-4.64 65.24-4.93 65.86-5.22 66.3-5.71 66.74-6.2 67.01-6.86 67.28-7.52 67.4-8.25ZM57.86-12.89L57.86-12.89Q57.86-11.21 58.38-9.69 58.91-8.18 59.76-7.06L59.76-7.06Q59.91-8.25 59.91-9.35L59.91-9.35Q59.91-10.62 59.87-11.71 59.83-12.79 59.7-13.57 59.57-14.36 59.33-14.81 59.1-15.26 58.71-15.26L58.71-15.26Q57.86-15.26 57.86-12.89ZM97.26-6.4L97.26-6.4Q96.92-5.15 96.37-3.78 95.82-2.42 94.96-1.27 94.11-0.12 92.91 0.63 91.72 1.39 90.1 1.39L90.1 1.39Q89.1 1.39 88.33 1.01 87.57 0.63 87.02 0 86.47-0.63 86.19-1.49 85.91-2.34 85.91-3.3L85.91-3.3 85.91-13.45Q85.91-14.04 85.88-14.55 85.86-15.06 85.76-15.45 85.66-15.84 85.48-16.08 85.3-16.31 84.98-16.31L84.98-16.31Q84.47-16.31 83.73-15.58 83-14.84 82.32-13.67 81.63-12.5 81.1-11.02 80.56-9.55 80.46-8.06L80.46-8.06 80.46-0.76Q80.46-0.39 80.45-0.01 80.44 0.37 80.3 0.67 80.17 0.98 79.89 1.18 79.61 1.39 79.07 1.39L79.07 1.39Q78.7 1.39 78.28 1.31 77.85 1.22 77.49 0.99 77.14 0.76 76.91 0.33 76.68-0.1 76.68-0.81L76.68-0.81 76.68-13.45Q76.68-14.04 76.64-14.55 76.6-15.06 76.51-15.45 76.41-15.84 76.23-16.08 76.04-16.31 75.72-16.31L75.72-16.31Q75.21-16.31 74.49-15.58 73.77-14.84 73.08-13.67 72.38-12.5 71.86-11.02 71.33-9.55 71.21-8.06L71.21-8.06 71.21-0.76Q71.21-0.39 71.2-0.01 71.18 0.37 71.05 0.67 70.92 0.98 70.63 1.18 70.35 1.39 69.82 1.39L69.82 1.39Q69.45 1.39 69.02 1.31 68.6 1.22 68.24 0.99 67.89 0.76 67.66 0.33 67.42-0.1 67.42-0.81L67.42-0.81 67.42-16.65Q67.42-17.36 67.31-17.68 67.2-17.99 67.2-18.26L67.2-18.26Q67.2-18.63 67.6-18.86 67.99-19.09 68.52-19.09L68.52-19.09Q69.77-19.09 70.49-18.44 71.21-17.8 71.21-16.89L71.21-16.89 71.21-14.79Q71.7-15.82 72.27-16.7 72.84-17.58 73.5-18.23 74.16-18.87 74.91-19.24 75.65-19.6 76.51-19.6L76.51-19.6Q77.63-19.6 78.37-19.19 79.12-18.77 79.57-18.09 80.02-17.41 80.22-16.56 80.41-15.72 80.46-14.89L80.46-14.89Q80.93-15.89 81.49-16.75 82.05-17.6 82.71-18.24 83.37-18.87 84.11-19.24 84.86-19.6 85.71-19.6L85.71-19.6Q86.93-19.6 87.71-19.14 88.49-18.68 88.93-17.94 89.37-17.21 89.54-16.31 89.71-15.41 89.71-14.55L89.71-14.55 89.71-4.2Q89.71-4.03 89.74-3.65 89.76-3.27 89.89-2.88 90.01-2.49 90.26-2.2 90.52-1.9 91.01-1.9L91.01-1.9Q91.76-1.9 92.31-2.44 92.86-2.98 93.27-3.78 93.67-4.59 93.94-5.53 94.21-6.47 94.38-7.3L94.38-7.3Q94.52-8.08 94.85-8.44 95.18-8.79 95.57-8.79L95.57-8.79Q95.87-8.79 96.17-8.61 96.48-8.42 96.73-8.13 96.99-7.84 97.15-7.47 97.31-7.1 97.31-6.74L97.31-6.74Q97.31-6.69 97.31-6.62 97.31-6.54 97.26-6.4Z" opacity="1" transform="matrix(1,0,0,1,0,0)" fill="#ffffff" class="wordmark-text-0" data-fill-palette-color="primary" id="text-0"></path></svg></g></svg></g></svg></g></svg></g><g></g></svg></g><defs></defs></svg><rect width="395.5199999999999" height="157.54696378830081" fill="none" stroke="none" visibility="hidden"></rect></g></svg></g></svg>